<svg xmlns="http://www.w3.org/2000/svg" xmlns:xlink="http://www.w3.org/1999/xlink" width="500" zoomAndPan="magnify" viewBox="0 0 375 374.999991" height="500" preserveAspectRatio="xMidYMid meet" version="1.0"><defs><g/><clipPath id="bbba0ab406"><path d="M 44 105.402344 L 336 105.402344 L 336 221.652344 L 44 221.652344 Z M 44 105.402344 " clip-rule="nonzero"/></clipPath></defs><g fill="#ffffff" fill-opacity="1"><g transform="translate(47.885615, 248.447328)"><g><path d="M 10.488281 -13.726562 L 10.488281 -17.160156 L 1.921875 -17.160156 L 1.921875 0 L 5.351562 0 L 5.351562 -6.863281 L 9.71875 -6.863281 L 9.71875 -10.296875 L 5.351562 -10.296875 L 5.351562 -13.726562 Z M 10.488281 -13.726562 "/></g></g></g><g fill="#ffffff" fill-opacity="1"><g transform="translate(59.285635, 248.447328)"><g><path d="M 10.175781 0.238281 C 21.984375 0.238281 21.984375 -17.449219 10.175781 -17.449219 C -1.632812 -17.449219 -1.632812 0.238281 10.175781 0.238281 Z M 10.175781 -3.3125 C 3.3125 -3.3125 3.3125 -13.921875 10.175781 -13.921875 C 17.039062 -13.921875 17.039062 -3.3125 10.175781 -3.3125 Z M 10.175781 -3.3125 "/></g></g></g><g fill="#ffffff" fill-opacity="1"><g transform="translate(79.613671, 248.447328)"><g><path d="M 10.464844 0 L 14.351562 0 L 10.367188 -7.078125 C 15.40625 -8.542969 14.808594 -17.160156 8.6875 -17.160156 L 1.921875 -17.160156 L 1.921875 0 L 5.351562 0 L 5.351562 -6.550781 L 7.007812 -6.550781 Z M 5.351562 -9.886719 L 5.351562 -13.726562 L 8.375 -13.726562 C 10.703125 -13.726562 10.703125 -9.886719 8.375 -9.886719 Z M 5.351562 -9.886719 "/></g></g></g><g fill="#ffffff" fill-opacity="1"><g transform="translate(94.325702, 248.447328)"><g><path d="M 8.183594 0 L 8.183594 -13.726562 L 12.457031 -13.726562 L 12.457031 -17.136719 L 0.480469 -17.136719 L 0.480469 -13.726562 L 4.753906 -13.726562 L 4.753906 0 Z M 8.183594 0 "/></g></g></g><g fill="#ffffff" fill-opacity="1"><g transform="translate(107.453722, 248.447328)"><g><path d="M 0.382812 0 L 4.273438 0 L 4.945312 -1.847656 L 10.632812 -1.847656 L 11.328125 0 L 15.191406 0 L 7.96875 -17.785156 L 7.609375 -17.785156 Z M 6.191406 -5.0625 L 7.800781 -9.527344 L 9.359375 -5.0625 Z M 6.191406 -5.0625 "/></g></g></g><g fill="#ffffff" fill-opacity="1"><g transform="translate(123.125753, 248.447328)"><g><path d="M 1.921875 -17.160156 L 1.921875 0 L 10.800781 0 L 10.800781 -3.433594 L 5.351562 -3.433594 L 5.351562 -17.160156 Z M 1.921875 -17.160156 "/></g></g></g><g fill="#ffffff" fill-opacity="1"><g transform="translate(134.957776, 248.447328)"><g><path d="M 10.800781 0 L 10.800781 -3.433594 L 5.351562 -3.433594 L 5.351562 -6.863281 L 9.863281 -6.863281 L 9.863281 -10.296875 L 5.351562 -10.296875 L 5.351562 -13.726562 L 10.511719 -13.726562 L 10.511719 -17.160156 L 1.921875 -17.160156 L 1.921875 0 Z M 10.800781 0 "/></g></g></g><g fill="#ffffff" fill-opacity="1"><g transform="translate(147.053802, 248.447328)"><g><path d="M 12.023438 0 L 12.023438 -3.457031 L 5.640625 -3.457031 L 11.832031 -17.160156 L 1.441406 -17.160156 L 1.441406 -13.824219 L 6.71875 -13.824219 C 4.65625 -9.238281 2.59375 -4.609375 0.527344 0 Z M 12.023438 0 "/></g></g></g><g fill="#ffffff" fill-opacity="1"><g transform="translate(159.893832, 248.447328)"><g><path d="M 0.382812 0 L 4.273438 0 L 4.945312 -1.847656 L 10.632812 -1.847656 L 11.328125 0 L 15.191406 0 L 7.96875 -17.785156 L 7.609375 -17.785156 Z M 6.191406 -5.0625 L 7.800781 -9.527344 L 9.359375 -5.0625 Z M 6.191406 -5.0625 "/></g></g></g><g fill="#ffffff" fill-opacity="1"><g transform="translate(175.565863, 248.447328)"><g/></g></g><g fill="#ffffff" fill-opacity="1"><g transform="translate(182.381872, 248.447328)"><g><path d="M 1.128906 -1.105469 C 3.457031 0.0976562 5.59375 0.214844 6.550781 0.144531 C 9.769531 -0.0234375 11.734375 -2.207031 11.734375 -5.0625 C 11.734375 -7.800781 9.433594 -9.335938 6.769531 -10.320312 C 5.785156 -10.65625 4.945312 -11.089844 4.847656 -12.046875 C 4.777344 -13.007812 5.328125 -13.894531 6.550781 -13.96875 C 7.078125 -13.992188 8.160156 -14.015625 10.054688 -13.246094 L 10.488281 -16.558594 C 8.28125 -17.328125 7.105469 -17.328125 6.214844 -17.28125 C 3.359375 -17.136719 1.367188 -14.929688 1.367188 -12.046875 C 1.367188 -9.167969 3.769531 -7.800781 6.457031 -6.816406 C 7.414062 -6.480469 8.160156 -6.046875 8.230469 -5.0625 C 8.328125 -4.128906 7.464844 -3.40625 6.457031 -3.335938 C 5.664062 -3.265625 3.527344 -3.3125 1.558594 -4.703125 Z M 1.128906 -1.105469 "/></g></g></g><g fill="#ffffff" fill-opacity="1"><g transform="translate(195.077901, 248.447328)"><g><path d="M 10.175781 0.238281 C 21.984375 0.238281 21.984375 -17.449219 10.175781 -17.449219 C -1.632812 -17.449219 -1.632812 0.238281 10.175781 0.238281 Z M 10.175781 -3.3125 C 3.3125 -3.3125 3.3125 -13.921875 10.175781 -13.921875 C 17.039062 -13.921875 17.039062 -3.3125 10.175781 -3.3125 Z M 10.175781 -3.3125 "/></g></g></g><g fill="#ffffff" fill-opacity="1"><g transform="translate(215.405937, 248.447328)"><g><path d="M 1.921875 -17.160156 L 1.921875 0 L 10.800781 0 L 10.800781 -3.433594 L 5.351562 -3.433594 L 5.351562 -17.160156 Z M 1.921875 -17.160156 "/></g></g></g><g fill="#ffffff" fill-opacity="1"><g transform="translate(227.23796, 248.447328)"><g><path d="M 14.230469 -5.976562 L 14.230469 -17.160156 L 10.824219 -17.160156 L 10.824219 -6 C 10.824219 -2.398438 5.257812 -2.398438 5.257812 -6 L 5.257812 -17.160156 L 1.824219 -17.160156 L 1.824219 -5.976562 C 1.824219 2.183594 14.230469 2.183594 14.230469 -5.976562 Z M 14.230469 -5.976562 "/></g></g></g><g fill="#ffffff" fill-opacity="1"><g transform="translate(243.341993, 248.447328)"><g><path d="M 12.839844 -13.175781 L 13.246094 -16.703125 C 12.214844 -17.160156 11.0625 -17.375 9.863281 -17.375 C -1.753906 -17.375 -1.777344 0.046875 9.863281 0.046875 C 11.0625 0.046875 12.574219 -0.238281 13.632812 -0.671875 L 13.175781 -4.222656 C 12.527344 -3.886719 11.351562 -3.457031 9.863281 -3.457031 C 3.070312 -3.457031 3.070312 -13.921875 9.863281 -13.921875 C 11.351562 -13.921875 12.191406 -13.511719 12.839844 -13.175781 Z M 12.839844 -13.175781 "/></g></g></g><g fill="#ffffff" fill-opacity="1"><g transform="translate(257.790021, 248.447328)"><g><path d="M 5.351562 0 L 5.351562 -17.160156 L 1.921875 -17.160156 L 1.921875 0 Z M 5.351562 0 "/></g></g></g><g fill="#ffffff" fill-opacity="1"><g transform="translate(265.086041, 248.447328)"><g><path d="M 10.175781 0.238281 C 21.984375 0.238281 21.984375 -17.449219 10.175781 -17.449219 C -1.632812 -17.449219 -1.632812 0.238281 10.175781 0.238281 Z M 10.175781 -3.3125 C 3.3125 -3.3125 3.3125 -13.921875 10.175781 -13.921875 C 17.039062 -13.921875 17.039062 -3.3125 10.175781 -3.3125 Z M 10.175781 -3.3125 "/></g></g></g><g fill="#ffffff" fill-opacity="1"><g transform="translate(285.414088, 248.447328)"><g><path d="M 5.351562 -9.335938 L 14.039062 0.359375 L 14.953125 0.359375 L 14.953125 -17.136719 L 11.496094 -17.136719 L 11.496094 -7.441406 L 2.832031 -17.519531 L 1.921875 -17.519531 L 1.921875 0 L 5.351562 0 Z M 5.351562 -9.335938 "/></g></g></g><g fill="#ffffff" fill-opacity="1"><g transform="translate(302.310122, 248.447328)"><g><path d="M 10.800781 0 L 10.800781 -3.433594 L 5.351562 -3.433594 L 5.351562 -6.863281 L 9.863281 -6.863281 L 9.863281 -10.296875 L 5.351562 -10.296875 L 5.351562 -13.726562 L 10.511719 -13.726562 L 10.511719 -17.160156 L 1.921875 -17.160156 L 1.921875 0 Z M 10.800781 0 "/></g></g></g><g fill="#ffffff" fill-opacity="1"><g transform="translate(314.406137, 248.447328)"><g><path d="M 1.128906 -1.105469 C 3.457031 0.0976562 5.59375 0.214844 6.550781 0.144531 C 9.769531 -0.0234375 11.734375 -2.207031 11.734375 -5.0625 C 11.734375 -7.800781 9.433594 -9.335938 6.769531 -10.320312 C 5.785156 -10.65625 4.945312 -11.089844 4.847656 -12.046875 C 4.777344 -13.007812 5.328125 -13.894531 6.550781 -13.96875 C 7.078125 -13.992188 8.160156 -14.015625 10.054688 -13.246094 L 10.488281 -16.558594 C 8.28125 -17.328125 7.105469 -17.328125 6.214844 -17.28125 C 3.359375 -17.136719 1.367188 -14.929688 1.367188 -12.046875 C 1.367188 -9.167969 3.769531 -7.800781 6.457031 -6.816406 C 7.414062 -6.480469 8.160156 -6.046875 8.230469 -5.0625 C 8.328125 -4.128906 7.464844 -3.40625 6.457031 -3.335938 C 5.664062 -3.265625 3.527344 -3.3125 1.558594 -4.703125 Z M 1.128906 -1.105469 "/></g></g></g><g clip-path="url(#bbba0ab406)"><path fill="#ffffff" d="M 203.828125 114.054688 L 205.707031 107.574219 C 205.527344 107.527344 205.078125 108.078125 204.648438 108.191406 C 204.210938 108.304688 198.914062 108.238281 198.167969 108.054688 C 197.425781 107.875 197.410156 106.378906 196.800781 106.269531 C 196.78125 106.265625 196.761719 106.273438 196.742188 106.289062 L 193.492188 117.457031 L 197.121094 117.769531 Z M 194.210938 117.132812 C 194.183594 117.226562 194.085938 117.28125 193.992188 117.253906 C 193.902344 117.226562 193.847656 117.128906 193.875 117.035156 C 193.898438 116.945312 194 116.890625 194.089844 116.917969 C 194.183594 116.945312 194.234375 117.039062 194.210938 117.132812 Z M 203.554688 113.539062 C 203.648438 113.5625 203.703125 113.664062 203.675781 113.753906 C 203.648438 113.847656 203.550781 113.902344 203.457031 113.875 C 203.363281 113.847656 203.3125 113.75 203.335938 113.65625 C 203.363281 113.5625 203.460938 113.511719 203.554688 113.539062 Z M 197.988281 110.074219 L 198.398438 110.0625 C 198.605469 110.109375 198.78125 110.238281 198.902344 110.414062 C 199.058594 110.167969 199.324219 110.09375 199.621094 110.082031 C 199.917969 110.074219 200.183594 110.132812 200.34375 110.367188 C 200.503906 110.121094 200.765625 110.042969 201.066406 110.035156 C 201.363281 110.027344 201.628906 110.082031 201.789062 110.320312 C 201.90625 110.136719 202.082031 109.996094 202.289062 109.933594 L 202.679688 109.917969 C 203.089844 109.90625 203.421875 110.269531 203.425781 110.734375 C 203.425781 111.199219 203.09375 111.585938 202.683594 111.597656 L 197.992188 111.75 C 197.578125 111.765625 197.242188 111.398438 197.242188 110.9375 C 197.246094 110.476562 197.578125 110.085938 197.988281 110.074219 Z M 197.042969 117.5 C 196.953125 117.472656 196.898438 117.375 196.925781 117.285156 C 196.953125 117.191406 197.050781 117.136719 197.144531 117.164062 C 197.238281 117.191406 197.292969 117.289062 197.265625 117.382812 C 197.234375 117.476562 197.136719 117.527344 197.042969 117.5 Z M 140.460938 190.550781 L 149.558594 190.550781 L 149.558594 180.910156 L 140.460938 180.910156 Z M 197.144531 117.242188 L 197.097656 117.226562 L 197.074219 117.300781 L 197.003906 117.28125 L 196.988281 117.328125 L 197.0625 117.347656 L 197.039062 117.421875 L 197.089844 117.4375 L 197.109375 117.363281 L 197.183594 117.382812 L 197.199219 117.335938 L 197.125 117.316406 Z M 267.152344 216.292969 L 285.785156 206.628906 L 281.195312 200.890625 L 267.152344 196.5 L 267.152344 189.382812 L 276.21875 189.382812 L 263.390625 171.335938 L 276.617188 162.578125 L 280.289062 162.824219 L 273.6875 152.855469 L 272.484375 156.332031 L 259.050781 165.226562 L 247.554688 149.046875 L 248.792969 147.382812 C 248.792969 147.382812 249.667969 144.042969 251.238281 141.894531 C 251.800781 141.125 254.082031 140.382812 254.082031 140.382812 L 255.570312 138.414062 L 254.023438 137.195312 L 264.757812 123.578125 L 265.847656 123.226562 L 268.6875 119.902344 L 267.464844 118.9375 L 267.414062 118.898438 L 267.367188 118.863281 L 266.144531 117.898438 L 263.574219 121.4375 L 263.484375 122.578125 L 252.75 136.191406 L 251.203125 134.972656 L 249.636719 136.878906 C 249.636719 136.878906 249.449219 139.269531 248.832031 140 C 247.109375 142.023438 244.066406 143.65625 244.066406 143.65625 L 243.882812 143.878906 L 239.21875 137.316406 L 233.171875 137.316406 C 236.3125 131.886719 239.675781 126.074219 239.675781 126.074219 C 240.164062 125.234375 241.679688 125.53125 242.976562 123.449219 C 244.011719 121.785156 243.375 119.578125 241.679688 118.59375 C 239.980469 117.609375 237.75 118.160156 236.824219 119.890625 C 235.664062 122.050781 236.679688 123.214844 236.191406 124.054688 C 236.191406 124.054688 231.933594 131.421875 228.523438 137.316406 L 220.597656 137.316406 L 220.597656 130.035156 L 206.195312 130.035156 L 206.195312 137.316406 L 192.070312 137.316406 L 192.078125 137.300781 L 192.457031 137.28125 L 192.25 136.960938 L 192.265625 136.929688 L 192.648438 136.910156 L 192.4375 136.59375 L 192.453125 136.5625 L 192.832031 136.542969 L 192.625 136.222656 L 192.640625 136.191406 L 193.019531 136.171875 L 192.8125 135.855469 L 192.828125 135.824219 L 193.207031 135.804688 L 193 135.488281 L 193.015625 135.453125 L 193.394531 135.433594 L 193.1875 135.121094 L 193.203125 135.085938 L 193.578125 135.0625 L 193.371094 134.75 L 193.390625 134.714844 L 193.765625 134.695312 L 193.558594 134.378906 L 193.578125 134.34375 L 193.949219 134.324219 L 193.746094 134.007812 L 193.761719 133.972656 L 194.136719 133.953125 L 193.933594 133.640625 L 193.949219 133.601562 L 194.328125 133.582031 L 194.121094 133.269531 L 194.136719 133.234375 L 194.511719 133.210938 L 194.308594 132.898438 L 194.328125 132.863281 L 194.699219 132.839844 L 194.492188 132.527344 L 194.515625 132.492188 L 194.886719 132.46875 L 194.683594 132.160156 L 194.699219 132.121094 L 195.070312 132.101562 L 194.867188 131.789062 L 194.886719 131.75 L 195.257812 131.730469 L 195.054688 131.417969 L 195.074219 131.378906 L 195.449219 131.359375 L 195.242188 131.046875 L 195.261719 131.007812 L 195.632812 130.988281 L 195.429688 130.675781 L 195.449219 130.636719 L 195.816406 130.617188 L 195.617188 130.308594 L 195.636719 130.269531 L 196.007812 130.25 L 195.804688 129.941406 L 195.824219 129.902344 L 196.195312 129.878906 L 195.992188 129.570312 L 196.011719 129.53125 L 196.378906 129.511719 L 196.175781 129.203125 L 196.199219 129.160156 L 196.566406 129.136719 L 196.363281 128.832031 L 196.386719 128.789062 L 196.753906 128.769531 L 196.554688 128.460938 L 196.574219 128.421875 L 196.941406 128.398438 L 196.738281 128.089844 L 196.757812 128.046875 L 197.128906 128.027344 L 196.925781 127.71875 L 196.945312 127.679688 L 197.316406 127.65625 L 197.113281 127.351562 L 197.136719 127.304688 L 197.503906 127.285156 L 197.300781 126.980469 L 197.324219 126.9375 L 197.691406 126.917969 L 197.488281 126.609375 L 197.511719 126.566406 L 197.875 126.546875 L 197.675781 126.242188 L 197.699219 126.199219 L 198.0625 126.179688 L 197.863281 125.875 L 197.886719 125.828125 L 198.25 125.808594 L 198.050781 125.503906 L 198.070312 125.460938 L 198.433594 125.4375 L 198.234375 125.136719 L 198.257812 125.089844 L 198.621094 125.070312 L 198.421875 124.765625 L 198.445312 124.722656 L 198.808594 124.699219 L 198.605469 124.398438 L 198.628906 124.351562 L 198.992188 124.328125 L 198.792969 124.027344 L 198.816406 123.980469 L 199.179688 123.957031 L 198.980469 123.65625 L 199.003906 123.609375 L 199.367188 123.589844 L 199.167969 123.285156 L 199.191406 123.238281 L 199.554688 123.21875 L 199.355469 122.917969 L 199.378906 122.867188 L 199.742188 122.847656 L 199.542969 122.546875 L 199.566406 122.5 L 199.929688 122.480469 L 199.730469 122.179688 L 199.753906 122.128906 L 200.113281 122.109375 L 199.917969 121.808594 L 199.941406 121.761719 L 200.300781 121.738281 L 200.105469 121.4375 L 200.132812 121.386719 L 200.488281 121.367188 L 200.292969 121.066406 L 200.316406 121.015625 L 200.675781 120.996094 L 200.480469 120.699219 L 200.503906 120.648438 L 200.863281 120.628906 L 200.664062 120.328125 L 200.691406 120.277344 L 201.046875 120.257812 L 200.851562 119.960938 L 200.878906 119.910156 L 201.238281 119.890625 L 201.039062 119.589844 L 201.066406 119.539062 L 201.421875 119.515625 L 201.226562 119.21875 L 201.253906 119.167969 L 201.609375 119.148438 L 201.414062 118.851562 L 201.4375 118.800781 L 201.792969 118.777344 L 201.597656 118.480469 L 201.625 118.429688 L 201.980469 118.410156 L 201.785156 118.113281 L 201.8125 118.0625 L 202.164062 118.039062 L 201.972656 117.746094 L 202 117.691406 L 202.351562 117.671875 L 202.15625 117.375 L 202.183594 117.320312 L 202.539062 117.300781 L 202.34375 117.007812 L 202.371094 116.953125 L 202.726562 116.933594 L 202.53125 116.636719 L 202.558594 116.582031 L 202.910156 116.5625 L 202.71875 116.265625 L 202.746094 116.210938 L 203.097656 116.191406 L 202.90625 115.898438 L 202.933594 115.839844 L 203.285156 115.820312 L 203.089844 115.527344 L 203.117188 115.472656 L 203.46875 115.453125 L 203.277344 115.160156 L 203.304688 115.101562 L 203.65625 115.082031 L 203.464844 114.789062 L 203.492188 114.734375 L 203.84375 114.714844 L 203.679688 114.464844 L 197.199219 118.058594 L 193.425781 117.730469 L 187.730469 137.3125 L 170.972656 137.3125 C 169.808594 135.144531 168.261719 132.101562 167.90625 130.605469 C 167.160156 127.472656 170.773438 123.628906 170.773438 123.628906 L 170.699219 123.320312 L 159.132812 126.078125 L 159.203125 126.386719 C 159.203125 126.386719 164.164062 128.1875 164.910156 131.324219 C 165.203125 132.550781 165.25 135.085938 165.222656 137.316406 L 149.089844 137.316406 C 147.933594 135.789062 146.714844 134.300781 145.40625 132.796875 C 145.34375 132.65625 145.179688 132.613281 144.992188 132.613281 L 143.402344 130.652344 C 143.28125 130.472656 142.96875 130.488281 142.597656 130.621094 C 142.695312 130.699219 142.785156 130.78125 142.875 130.859375 C 142.890625 130.875 142.898438 130.886719 142.910156 130.898438 C 143.089844 131.125 143.101562 131.527344 142.609375 131.972656 C 142.367188 132.191406 142.070312 132.359375 141.785156 132.421875 C 141.515625 132.476562 141.253906 132.4375 141.0625 132.253906 C 141.039062 132.230469 140.875 132.085938 140.804688 132.023438 C 140.75 132.148438 140.734375 132.269531 140.765625 132.375 L 140.765625 132.378906 C 140.777344 132.414062 140.792969 132.449219 140.816406 132.480469 C 140.832031 132.503906 142.386719 134.710938 142.386719 134.710938 C 142.378906 134.816406 142.394531 134.914062 142.4375 135.003906 L 142.433594 135.003906 C 142.441406 135.011719 142.445312 135.019531 142.445312 135.027344 C 142.457031 135.042969 142.460938 135.058594 142.472656 135.070312 C 142.476562 135.074219 142.476562 135.078125 142.476562 135.078125 C 142.917969 135.835938 143.347656 136.578125 143.773438 137.3125 L 138.449219 137.3125 L 127.285156 152.6875 C 122.050781 148.074219 115.742188 142.503906 114.859375 141.726562 C 113.316406 140.367188 115.097656 136.777344 111.515625 133.621094 C 109.839844 132.144531 106.738281 130.992188 104.761719 131.613281 L 108.296875 134.730469 C 109.601562 135.878906 109.753906 137.351562 108.335938 138.960938 C 106.917969 140.570312 105.4375 140.601562 104.132812 139.449219 L 101.558594 137.183594 C 101.191406 139.222656 101.757812 141.308594 103.433594 142.78125 C 107.011719 145.941406 110.351562 143.726562 111.894531 145.085938 C 112.796875 145.882812 119.347656 151.660156 124.644531 156.328125 L 113.21875 172.058594 L 87.574219 158.773438 L 87.007812 158.453125 L 83.007812 165.519531 L 107.179688 180.371094 L 100.644531 189.375 L 109.707031 189.375 L 109.707031 192.054688 C 109.445312 191.871094 109.121094 191.753906 108.761719 191.722656 L 106.136719 191.496094 C 105.675781 191.457031 105.253906 191.414062 104.921875 191.691406 C 104.75 191.835938 104.609375 192.011719 104.503906 192.210938 L 98.824219 191.71875 C 96.847656 191.546875 94.972656 192.046875 93.414062 193.027344 L 92.570312 189.394531 L 100.085938 187.648438 C 100.800781 187.484375 101.246094 186.769531 101.078125 186.054688 C 100.914062 185.335938 100.199219 184.894531 99.484375 185.058594 L 90.671875 187.105469 C 89.957031 187.273438 89.511719 187.988281 89.679688 188.703125 L 91.195312 195.230469 L 90.578125 195.898438 C 90.378906 196.226562 90.203125 196.570312 90.046875 196.925781 L 89.28125 197.632812 L 87.863281 195.773438 L 86.144531 197.359375 L 84.726562 195.503906 L 83.011719 197.089844 L 81.667969 195.335938 L 81.59375 195.234375 L 79.875 196.820312 L 78.457031 194.960938 L 76.742188 196.546875 L 75.324219 194.691406 L 73.605469 196.277344 L 72.1875 194.421875 L 70.472656 196.007812 L 69.050781 194.152344 L 67.335938 195.734375 L 65.917969 193.878906 L 64.199219 195.464844 L 62.78125 193.609375 L 61.0625 195.195312 L 59.644531 193.339844 L 57.929688 194.925781 L 56.511719 193.066406 L 54.796875 194.652344 L 53.378906 192.796875 L 51.347656 194.675781 C 47.78125 194.425781 44.660156 197.003906 44.359375 200.472656 C 44.058594 203.976562 46.742188 207.082031 50.347656 207.394531 L 51.878906 209.390625 L 53.601562 207.804688 L 55.027344 209.664062 L 56.753906 208.078125 L 58.179688 209.933594 L 59.902344 208.351562 L 61.328125 210.207031 L 63.054688 208.621094 L 64.476562 210.480469 L 66.203125 208.894531 L 67.628906 210.75 L 69.351562 209.164062 L 70.777344 211.023438 L 72.5 209.4375 L 73.925781 211.296875 L 75.648438 209.710938 L 77.074219 211.570312 L 78.777344 210.003906 L 80.183594 211.835938 L 80.207031 211.816406 L 80.222656 211.839844 L 80.242188 211.824219 L 80.246094 211.777344 L 81.90625 210.253906 L 83.332031 212.109375 L 85.054688 210.523438 L 86.480469 212.382812 L 88.203125 210.796875 L 88.359375 211 C 88.304688 211.867188 88.945312 212.617188 89.8125 212.695312 L 109.703125 214.414062 L 109.703125 217.789062 C 92.238281 218.757812 77.226562 220.078125 65.777344 221.648438 L 293.355469 221.648438 C 286 220.640625 277.167969 219.730469 267.164062 218.957031 L 267.164062 216.292969 Z M 284.320312 206.03125 C 284.492188 205.941406 284.710938 206.007812 284.800781 206.179688 C 284.890625 206.355469 284.820312 206.570312 284.648438 206.660156 C 284.476562 206.75 284.261719 206.679688 284.167969 206.507812 C 284.078125 206.335938 284.144531 206.121094 284.320312 206.03125 Z M 280.429688 201.226562 C 280.601562 201.136719 280.820312 201.207031 280.910156 201.378906 C 281 201.550781 280.929688 201.765625 280.757812 201.855469 C 280.585938 201.945312 280.367188 201.878906 280.277344 201.707031 C 280.191406 201.53125 280.257812 201.316406 280.429688 201.226562 Z M 267.152344 204.039062 L 271.183594 207.996094 C 271.777344 208.582031 271.710938 209.578125 271.039062 210.222656 C 270.363281 210.871094 269.332031 210.929688 268.742188 210.34375 L 268.148438 209.761719 C 267.9375 209.390625 267.875 208.953125 267.964844 208.535156 C 267.667969 208.589844 267.402344 208.546875 267.15625 208.433594 L 267.15625 204.039062 Z M 87.65625 204.222656 C 87.503906 205.941406 85.945312 207.214844 84.179688 207.0625 L 55.78125 204.605469 L 50.621094 204.160156 C 48.855469 204.007812 47.539062 202.484375 47.6875 200.765625 C 47.835938 199.046875 49.394531 197.777344 51.160156 197.929688 L 79.558594 200.386719 L 84.71875 200.832031 C 86.484375 200.980469 87.804688 202.503906 87.65625 204.222656 Z M 106.253906 208.847656 L 97.535156 208.09375 C 97.347656 208.078125 97.207031 207.910156 97.222656 207.71875 C 97.238281 207.53125 97.40625 207.390625 97.597656 207.40625 L 106.316406 208.160156 C 106.503906 208.175781 106.644531 208.34375 106.628906 208.535156 C 106.613281 208.726562 106.445312 208.867188 106.253906 208.847656 Z M 106.476562 206.308594 L 97.757812 205.554688 C 97.566406 205.539062 97.429688 205.371094 97.445312 205.183594 C 97.460938 204.992188 97.628906 204.851562 97.816406 204.871094 L 106.535156 205.625 C 106.726562 205.640625 106.867188 205.808594 106.847656 205.996094 C 106.832031 206.1875 106.664062 206.324219 106.476562 206.308594 Z M 106.695312 203.769531 L 97.976562 203.015625 C 97.785156 203 97.648438 202.832031 97.664062 202.640625 C 97.679688 202.453125 97.847656 202.3125 98.039062 202.328125 L 106.753906 203.082031 C 106.945312 203.097656 107.085938 203.265625 107.070312 203.453125 C 107.050781 203.644531 106.882812 203.785156 106.695312 203.769531 Z M 110.679688 144.394531 C 111.316406 144.410156 112.214844 143.910156 112.964844 143.058594 C 113.714844 142.210938 114.101562 141.253906 114.003906 140.625 C 114.265625 141.191406 113.910156 142.25 113.09375 143.175781 C 112.28125 144.097656 111.273438 144.585938 110.679688 144.394531 Z M 113.941406 145.175781 C 113.578125 144.851562 113.5625 144.273438 113.910156 143.882812 C 114.257812 143.488281 114.832031 143.429688 115.199219 143.75 L 126.515625 153.734375 L 126.46875 153.800781 L 115.226562 143.886719 C 114.867188 143.566406 114.316406 143.601562 113.996094 143.96875 C 113.675781 144.332031 113.707031 144.882812 114.066406 145.199219 L 125.433594 155.226562 L 125.398438 155.277344 Z M 164.265625 212.378906 L 114.308594 212.378906 L 114.308594 184.089844 L 139.554688 147.308594 L 164.265625 184.089844 Z M 237.570312 121.046875 L 237.570312 120.328125 L 238.191406 119.96875 L 238.550781 119.347656 L 239.273438 119.347656 L 239.894531 118.988281 L 240.519531 119.347656 L 241.238281 119.347656 L 241.597656 119.972656 L 242.21875 120.332031 L 242.21875 121.054688 L 242.578125 121.675781 L 242.21875 122.300781 L 242.21875 123.019531 L 241.597656 123.378906 L 241.238281 124 L 240.515625 124 L 239.894531 124.359375 L 239.269531 124 L 238.546875 124 L 238.1875 123.375 L 237.566406 123.015625 L 237.566406 122.296875 L 237.207031 121.671875 Z M 236.507812 123.382812 C 236.585938 123.933594 237.125 124.601562 237.9375 125.074219 C 238.75 125.542969 239.601562 125.675781 240.117188 125.46875 C 239.675781 125.8125 238.746094 125.71875 237.863281 125.207031 C 236.976562 124.695312 236.429688 123.933594 236.507812 123.382812 Z M 236.191406 126.347656 C 236.410156 125.972656 236.921875 125.855469 237.328125 126.09375 C 237.734375 126.328125 237.890625 126.828125 237.667969 127.207031 L 231.816406 137.320312 L 231.75 137.320312 L 237.554688 127.289062 C 237.769531 126.914062 237.640625 126.433594 237.265625 126.214844 C 236.886719 126 236.40625 126.125 236.191406 126.496094 L 229.929688 137.320312 L 229.84375 137.320312 Z M 218.902344 185.027344 L 218.902344 212.378906 L 201.972656 212.378906 L 201.972656 184.941406 L 218.90625 162.886719 L 235.832031 163.261719 L 218.90625 185.023438 Z M 246.933594 209.488281 L 230.714844 209.488281 L 230.714844 190.722656 L 246.933594 190.722656 Z M 280.375 157.277344 L 302.066406 165.816406 C 302.386719 165.945312 302.742188 165.90625 303.027344 165.71875 L 311.542969 160.074219 C 312.027344 159.753906 312.15625 159.105469 311.835938 158.628906 L 310.203125 156.15625 L 308.464844 157.308594 L 309.519531 158.90625 L 302.320312 163.675781 L 280.628906 155.136719 C 280.308594 155.011719 279.953125 155.050781 279.667969 155.238281 L 277.039062 156.980469 L 278.1875 158.722656 Z M 314.40625 152.753906 L 290.585938 116.789062 L 279.714844 123.988281 L 303.535156 159.953125 Z M 313.808594 181.257812 L 313.636719 182 L 313.566406 182.019531 L 313.007812 181.5 L 312.835938 182.238281 L 312.765625 182.261719 L 312.210938 181.742188 L 312.035156 182.480469 L 311.964844 182.503906 L 311.410156 181.984375 L 311.234375 182.722656 L 311.160156 182.746094 L 310.609375 182.226562 L 310.433594 182.964844 L 310.359375 182.988281 L 309.804688 182.46875 L 309.636719 183.207031 L 309.558594 183.230469 L 309.003906 182.710938 L 308.835938 183.449219 L 308.753906 183.472656 L 308.203125 182.953125 L 308.03125 183.691406 L 307.957031 183.714844 L 307.402344 183.199219 L 307.230469 183.933594 L 307.15625 183.957031 L 306.605469 183.441406 L 306.433594 184.175781 L 306.351562 184.203125 L 305.800781 183.6875 L 305.632812 184.421875 L 305.554688 184.445312 L 305.003906 183.929688 L 304.835938 184.660156 L 304.753906 184.6875 L 304.203125 184.171875 L 304.03125 184.90625 L 303.949219 184.929688 L 303.402344 184.414062 L 303.230469 185.148438 L 303.152344 185.171875 L 302.601562 184.660156 L 302.433594 185.390625 L 302.351562 185.414062 L 301.804688 184.902344 L 301.632812 185.628906 L 301.546875 185.65625 L 301.003906 185.144531 L 300.832031 185.875 L 300.746094 185.898438 L 300.199219 185.390625 L 300.03125 186.113281 L 299.945312 186.140625 L 299.402344 185.628906 L 299.234375 186.355469 L 299.144531 186.382812 L 298.601562 185.875 L 298.433594 186.597656 L 298.34375 186.625 L 297.804688 186.113281 L 297.632812 186.839844 L 297.546875 186.867188 L 297 186.359375 L 296.835938 187.082031 L 296.742188 187.109375 L 296.199219 186.601562 L 296.03125 187.324219 L 295.941406 187.351562 L 295.402344 186.84375 L 295.234375 187.566406 L 295.140625 187.59375 L 294.601562 187.085938 L 294.433594 187.808594 L 294.339844 187.835938 L 293.800781 187.328125 L 293.632812 188.050781 L 293.539062 188.078125 L 293 187.574219 L 292.835938 188.292969 L 292.738281 188.320312 L 292.199219 187.816406 L 292.03125 188.535156 L 291.9375 188.5625 L 291.398438 188.0625 L 291.230469 188.777344 L 291.132812 188.808594 L 290.597656 188.304688 L 290.429688 189.019531 L 290.332031 189.046875 L 289.796875 188.542969 L 289.628906 189.257812 L 289.53125 189.289062 L 288.996094 188.785156 L 288.828125 189.503906 L 288.730469 189.53125 L 288.195312 189.03125 L 288.027344 189.742188 L 287.929688 189.773438 L 287.394531 189.273438 L 287.226562 189.984375 L 287.128906 190.015625 L 286.59375 189.515625 L 286.425781 190.226562 L 286.324219 190.257812 L 285.792969 189.757812 L 285.628906 190.46875 L 285.527344 190.503906 L 284.992188 190.003906 L 284.828125 190.710938 L 284.726562 190.742188 L 284.195312 190.25 L 284.027344 190.957031 L 283.925781 190.988281 L 283.390625 190.492188 L 283.230469 191.195312 L 283.125 191.226562 L 282.59375 190.734375 L 282.429688 191.4375 L 282.324219 191.46875 L 281.792969 190.972656 L 281.628906 191.679688 L 281.519531 191.710938 L 280.992188 191.214844 L 280.828125 191.921875 L 280.722656 191.953125 L 280.195312 191.457031 L 280.03125 192.160156 L 279.921875 192.195312 L 279.390625 191.703125 L 279.230469 192.402344 L 279.121094 192.4375 L 278.59375 191.941406 L 278.429688 192.648438 L 278.320312 192.679688 L 277.792969 192.191406 L 277.628906 192.890625 L 277.519531 192.921875 L 276.992188 192.429688 L 276.832031 193.128906 L 276.71875 193.164062 L 276.195312 192.671875 L 276.03125 193.375 L 275.917969 193.40625 L 275.394531 192.914062 L 275.230469 193.613281 L 275.117188 193.648438 L 274.59375 193.160156 L 274.429688 193.855469 L 274.316406 193.890625 L 273.792969 193.402344 L 273.628906 194.097656 L 273.511719 194.132812 L 272.992188 193.640625 L 272.828125 194.335938 L 272.714844 194.371094 L 272.191406 193.886719 L 272.027344 194.578125 L 271.910156 194.613281 L 271.390625 194.125 L 271.230469 194.820312 L 271.109375 194.855469 L 270.589844 194.367188 L 270.429688 195.0625 L 270.3125 195.097656 L 269.789062 194.609375 L 269.628906 195.304688 L 269.507812 195.339844 L 268.988281 194.855469 L 268.828125 195.542969 L 268.707031 195.582031 L 268.1875 195.09375 L 268.027344 195.785156 L 267.90625 195.820312 L 267.390625 195.335938 L 267.253906 195.921875 L 281.53125 200.390625 L 286.3125 206.355469 L 335.957031 180.601562 L 333.523438 175.910156 L 333.011719 175.433594 L 332.835938 176.199219 L 332.785156 176.214844 L 332.210938 175.675781 L 332.035156 176.441406 L 331.984375 176.457031 L 331.410156 175.921875 L 331.234375 176.683594 L 331.183594 176.699219 L 330.609375 176.164062 L 330.433594 176.925781 L 330.382812 176.9375 L 329.8125 176.40625 L 329.636719 177.164062 L 329.582031 177.183594 L 329.011719 176.648438 L 328.832031 177.40625 L 328.78125 177.421875 L 328.210938 176.890625 L 328.035156 177.648438 L 327.980469 177.664062 L 327.410156 177.132812 L 327.234375 177.890625 L 327.179688 177.90625 L 326.609375 177.375 L 326.4375 178.128906 L 326.378906 178.148438 L 325.808594 177.617188 L 325.632812 178.375 L 325.578125 178.390625 L 325.011719 177.859375 L 324.832031 178.617188 L 324.777344 178.632812 L 324.210938 178.101562 L 324.035156 178.855469 L 323.976562 178.875 L 323.410156 178.34375 L 323.234375 179.097656 L 323.175781 179.117188 L 322.609375 178.589844 L 322.433594 179.339844 L 322.375 179.359375 L 321.808594 178.828125 L 321.632812 179.582031 L 321.570312 179.601562 L 321.007812 179.078125 L 320.828125 179.824219 L 320.765625 179.84375 L 320.207031 179.316406 L 320.03125 180.066406 L 319.96875 180.085938 L 319.40625 179.5625 L 319.230469 180.304688 L 319.164062 180.328125 L 318.605469 179.804688 L 318.429688 180.550781 L 318.363281 180.570312 L 317.804688 180.046875 L 317.628906 180.789062 L 317.5625 180.8125 L 317 180.285156 L 316.828125 181.03125 L 316.757812 181.050781 L 316.199219 180.53125 L 316.023438 181.273438 L 315.957031 181.292969 L 315.398438 180.769531 L 315.222656 181.515625 L 315.15625 181.535156 L 314.597656 181.015625 L 314.421875 181.757812 L 314.351562 181.78125 Z M 194.09375 116.992188 L 194.046875 116.980469 L 194.023438 117.054688 L 193.949219 117.03125 L 193.933594 117.082031 L 194.007812 117.101562 L 193.988281 117.175781 L 194.035156 117.191406 L 194.058594 117.117188 L 194.132812 117.136719 L 194.144531 117.089844 L 194.070312 117.066406 Z M 203.453125 113.796875 L 203.503906 113.808594 L 203.523438 113.734375 L 203.597656 113.757812 L 203.613281 113.710938 L 203.539062 113.6875 L 203.558594 113.613281 L 203.511719 113.597656 L 203.488281 113.671875 L 203.414062 113.652344 L 203.402344 113.699219 L 203.476562 113.722656 Z M 134.105469 127.058594 C 134.121094 128.214844 133.640625 129.058594 134.558594 130.148438 C 136.320312 132.238281 137.34375 131.636719 140.054688 131.269531 C 140.53125 131.207031 140.890625 131.730469 141.265625 132.027344 C 141.699219 132.449219 142.953125 131.480469 142.652344 131.097656 C 141.855469 130.378906 140.941406 129.777344 139.945312 129.847656 C 138.929688 129.914062 137.730469 130.714844 136.816406 130.269531 C 135.292969 129.535156 135.71875 127.589844 134.105469 127.058594 Z M 280.574219 201.609375 L 280.644531 201.75 L 280.734375 201.703125 L 280.664062 201.5625 L 280.804688 201.492188 L 280.757812 201.398438 L 280.617188 201.472656 L 280.542969 201.335938 L 280.457031 201.378906 L 280.527344 201.519531 L 280.390625 201.59375 L 280.433594 201.679688 Z M 128.210938 190.550781 L 137.3125 190.550781 L 137.3125 180.910156 L 128.210938 180.910156 Z M 128.210938 203.53125 L 137.3125 203.53125 L 137.3125 193.890625 L 128.210938 193.890625 Z M 140.460938 203.53125 L 149.558594 203.53125 L 149.558594 193.890625 L 140.460938 193.890625 Z M 84.582031 202.960938 L 51.09375 200.066406 C 50.503906 200.015625 49.984375 200.449219 49.933594 201.039062 C 49.882812 201.628906 50.320312 202.148438 50.910156 202.199219 L 84.398438 205.09375 C 84.984375 205.144531 85.503906 204.707031 85.554688 204.117188 C 85.605469 203.53125 85.171875 203.011719 84.582031 202.960938 Z M 159.050781 125.800781 L 170.621094 123.042969 L 169.402344 117.921875 L 157.832031 120.675781 Z M 128.234375 127.152344 C 129.371094 130.304688 133.03125 132.199219 134.902344 130.96875 C 134.714844 130.792969 134.519531 130.589844 134.320312 130.351562 C 133.5625 129.449219 133.648438 128.664062 133.738281 127.902344 C 133.765625 127.65625 133.789062 127.402344 133.792969 127.140625 L 124.355469 108.320312 L 134.070312 126.75 C 134.117188 126.742188 134.164062 126.746094 134.207031 126.761719 C 135.171875 127.078125 135.511719 127.847656 135.8125 128.527344 C 135.886719 128.703125 135.964844 128.871094 136.046875 129.03125 C 136.65625 126.691406 136.699219 122.503906 134.9375 119.914062 C 131.589844 114.984375 127.941406 111.207031 124.164062 106.410156 C 123.371094 105.402344 122.394531 105.933594 122.699219 107.210938 C 124.3125 113.972656 125.902344 120.691406 128.234375 127.152344 Z M 169.332031 117.640625 L 167.5625 110.21875 L 167.054688 110.339844 L 167.570312 112.664062 L 166.925781 110.367188 L 166.226562 110.535156 L 167.292969 115.273438 L 166.007812 110.589844 L 165.582031 110.691406 L 166.25 113.714844 L 165.414062 110.730469 L 163.566406 111.171875 L 164.03125 113.273438 L 163.449219 111.199219 L 163.003906 111.304688 L 163.675781 114.328125 L 162.835938 111.34375 L 160.648438 111.867188 L 161.265625 114.660156 L 160.492188 111.90625 L 160.011719 112.019531 L 160.683594 115.042969 L 159.84375 112.058594 L 158.132812 112.464844 L 158.847656 115.695312 L 157.953125 112.507812 L 156.972656 112.742188 L 157.519531 115.214844 L 156.835938 112.777344 L 155.996094 112.972656 L 157.765625 120.398438 Z M 284.460938 206.414062 L 284.535156 206.554688 L 284.625 206.507812 L 284.554688 206.367188 L 284.691406 206.292969 L 284.648438 206.207031 L 284.507812 206.277344 L 284.433594 206.136719 L 284.34375 206.183594 L 284.417969 206.324219 L 284.277344 206.398438 L 284.324219 206.488281 Z M 78.375 177.292969 L 79.726562 176.464844 C 79.726562 176.464844 73.832031 170.808594 76.433594 166.207031 C 78.035156 163.378906 81.429688 164.734375 82.511719 165.261719 L 86.519531 158.183594 C 86.464844 158.15625 86.410156 158.128906 86.355469 158.101562 C 84.265625 156.917969 83.65625 153.214844 85.125 150.875 C 86.796875 148.21875 88.503906 147.402344 88.503906 147.402344 L 90.433594 144.003906 L 81.234375 138.796875 L 79.09375 142.574219 C 79.738281 143.949219 79.6875 145.730469 78.800781 147.292969 C 77.914062 148.859375 76.417969 149.820312 74.902344 149.972656 L 74.277344 151.085938 C 74.277344 151.085938 72.335938 153.90625 69.617188 159.3125 C 66.460938 165.601562 78.375 177.292969 78.375 177.292969 Z M 78.375 177.292969 " fill-opacity="1" fill-rule="nonzero"/></g></svg>